# MagicaVoxel @ Ephtracy

# group
o 

# material
mtllib Fridge.mtl
usemtl palette

# normals
vn -1 0 0
vn 1 0 0
vn 0 0 1
vn 0 0 -1
vn 0 -1 0
vn 0 1 0

# texcoords
vt 0.306641 0.5
vt 0.841797 0.5
vt 0.958984 0.5
vt 0.962891 0.5
vt 0.982422 0.5

# verts
v 1 2 -1.1
v 1 2 -2.9
v 1 2.1 -1
v 1 2.1 -1.1
v 1 2.1 -2.9
v 1 2.1 -3
v 1 5.9 -1
v 1 5.9 -1.1
v 1 5.9 -2.9
v 1 5.9 -3
v 1 6 -1.1
v 1 6 -2.9
v 1.1 2 -1
v 1.1 2 -1.1
v 1.1 2 -2.9
v 1.1 2 -3
v 1.1 2.1 -1
v 1.1 2.1 -1.1
v 1.1 2.1 -2.9
v 1.1 2.1 -3
v 1.1 5.9 -1
v 1.1 5.9 -1.1
v 1.1 5.9 -2.9
v 1.1 5.9 -3
v 1.1 6 -1
v 1.1 6 -1.1
v 1.1 6 -2.9
v 1.1 6 -3
v 2.9 2 -1.2
v 2.9 2 -2.8
v 2.9 2.1 -1.2
v 2.9 2.1 -2.8
v 2.9 2.2 -1
v 2.9 2.2 -1.1
v 2.9 2.2 -2.9
v 2.9 2.2 -3
v 2.9 5.8 -1
v 2.9 5.8 -1.1
v 2.9 5.8 -2.9
v 2.9 5.8 -3
v 2.9 5.9 -1.2
v 2.9 5.9 -2.8
v 2.9 6 -1.2
v 2.9 6 -2.8
v 3.2 3.8 -2.7
v 3.2 3.8 -2.8
v 3.2 4.3 -2.7
v 3.2 4.3 -2.8
v 2.8 2 -1
v 2.8 2 -3
v 2.8 2.1 -1.1
v 2.8 2.1 -2.9
v 2.8 5.9 -1.1
v 2.8 5.9 -2.9
v 2.8 6 -1
v 2.8 6 -3
v 3 2 -1.2
v 3 2 -2.8
v 3 2.1 -1.1
v 3 2.1 -1.2
v 3 2.1 -2.8
v 3 2.1 -2.9
v 3 2.2 -1
v 3 2.2 -1.1
v 3 2.2 -1.2
v 3 2.2 -2.8
v 3 2.2 -2.9
v 3 2.2 -3
v 3 5.8 -1
v 3 5.8 -1.1
v 3 5.8 -1.2
v 3 5.8 -2.8
v 3 5.8 -2.9
v 3 5.8 -3
v 3 5.9 -1.1
v 3 5.9 -1.2
v 3 5.9 -2.8
v 3 5.9 -2.9
v 3 6 -1.2
v 3 6 -2.8
v 3.1 2.1 -1.2
v 3.1 2.1 -2.8
v 3.1 2.2 -1.1
v 3.1 2.2 -1.2
v 3.1 2.2 -2.8
v 3.1 2.2 -2.9
v 3.1 4.3 -2.7
v 3.1 4.3 -2.8
v 3.1 4.4 -2.7
v 3.1 4.4 -2.8
v 3.1 5.8 -1.1
v 3.1 5.8 -1.2
v 3.1 5.8 -2.8
v 3.1 5.8 -2.9
v 3.1 5.9 -1.2
v 3.1 5.9 -2.8
v 3.3 3.8 -2.7
v 3.3 3.8 -2.8
v 3.3 4.4 -2.7
v 3.3 4.4 -2.8
v 1 2.1 -1
v 1 5.9 -1
v 1.1 2 -1
v 1.1 2.1 -1
v 1.1 5.9 -1
v 1.1 6 -1
v 2.8 2 -1
v 2.8 6 -1
v 2.9 2.2 -1
v 2.9 5.8 -1
v 3 2.2 -1
v 3 5.8 -1
v 1 2 -1.1
v 1 2.1 -1.1
v 1 5.9 -1.1
v 1 6 -1.1
v 1.1 2 -1.1
v 1.1 2.1 -1.1
v 1.1 5.9 -1.1
v 1.1 6 -1.1
v 2.8 2.1 -1.1
v 2.8 5.9 -1.1
v 2.9 2.1 -1.1
v 2.9 2.2 -1.1
v 2.9 5.8 -1.1
v 2.9 5.9 -1.1
v 3 2.1 -1.1
v 3 2.2 -1.1
v 3 5.8 -1.1
v 3 5.9 -1.1
v 3.1 2.2 -1.1
v 3.1 5.8 -1.1
v 2.9 2 -1.2
v 2.9 2.1 -1.2
v 2.9 5.9 -1.2
v 2.9 6 -1.2
v 3 2 -1.2
v 3 2.1 -1.2
v 3 2.2 -1.2
v 3 5.8 -1.2
v 3 5.9 -1.2
v 3 6 -1.2
v 3.1 2.1 -1.2
v 3.1 2.2 -1.2
v 3.1 5.8 -1.2
v 3.1 5.9 -1.2
v 3.1 4.3 -2.7
v 3.1 4.4 -2.7
v 3.2 3.8 -2.7
v 3.2 4.3 -2.7
v 3.3 3.8 -2.7
v 3.3 4.4 -2.7
v 2.9 2 -2.8
v 2.9 2.1 -2.8
v 2.9 5.9 -2.8
v 2.9 6 -2.8
v 3 2 -2.8
v 3 2.1 -2.8
v 3 2.2 -2.8
v 3 5.8 -2.8
v 3 5.9 -2.8
v 3 6 -2.8
v 3.1 2.1 -2.8
v 3.1 2.2 -2.8
v 3.1 4.3 -2.8
v 3.1 4.4 -2.8
v 3.1 5.8 -2.8
v 3.1 5.9 -2.8
v 3.2 3.8 -2.8
v 3.2 4.3 -2.8
v 3.3 3.8 -2.8
v 3.3 4.4 -2.8
v 1 2 -2.9
v 1 2.1 -2.9
v 1 5.9 -2.9
v 1 6 -2.9
v 1.1 2 -2.9
v 1.1 2.1 -2.9
v 1.1 5.9 -2.9
v 1.1 6 -2.9
v 2.8 2.1 -2.9
v 2.8 5.9 -2.9
v 2.9 2.1 -2.9
v 2.9 2.2 -2.9
v 2.9 5.8 -2.9
v 2.9 5.9 -2.9
v 3 2.1 -2.9
v 3 2.2 -2.9
v 3 5.8 -2.9
v 3 5.9 -2.9
v 3.1 2.2 -2.9
v 3.1 5.8 -2.9
v 1 2.1 -3
v 1 5.9 -3
v 1.1 2 -3
v 1.1 2.1 -3
v 1.1 5.9 -3
v 1.1 6 -3
v 2.8 2 -3
v 2.8 6 -3
v 2.9 2.2 -3
v 2.9 5.8 -3
v 3 2.2 -3
v 3 5.8 -3
v 1.1 2 -1
v 2.8 2 -1
v 1 2 -1.1
v 1.1 2 -1.1
v 2.9 2 -1.2
v 3 2 -1.2
v 2.9 2 -2.8
v 3 2 -2.8
v 1 2 -2.9
v 1.1 2 -2.9
v 1.1 2 -3
v 2.8 2 -3
v 1 2.1 -1
v 1.1 2.1 -1
v 1 2.1 -1.1
v 1.1 2.1 -1.1
v 2.8 2.1 -1.1
v 2.9 2.1 -1.1
v 3 2.1 -1.1
v 2.9 2.1 -1.2
v 3 2.1 -1.2
v 3.1 2.1 -1.2
v 2.9 2.1 -2.8
v 3 2.1 -2.8
v 3.1 2.1 -2.8
v 1 2.1 -2.9
v 1.1 2.1 -2.9
v 2.8 2.1 -2.9
v 2.9 2.1 -2.9
v 3 2.1 -2.9
v 1 2.1 -3
v 1.1 2.1 -3
v 2.9 2.2 -1
v 3 2.2 -1
v 2.9 2.2 -1.1
v 3 2.2 -1.1
v 3.1 2.2 -1.1
v 3 2.2 -1.2
v 3.1 2.2 -1.2
v 3 2.2 -2.8
v 3.1 2.2 -2.8
v 2.9 2.2 -2.9
v 3 2.2 -2.9
v 3.1 2.2 -2.9
v 2.9 2.2 -3
v 3 2.2 -3
v 3.2 3.8 -2.7
v 3.3 3.8 -2.7
v 3.2 3.8 -2.8
v 3.3 3.8 -2.8
v 3.1 4.3 -2.7
v 3.2 4.3 -2.7
v 3.1 4.3 -2.8
v 3.2 4.3 -2.8
v 3.1 4.4 -2.7
v 3.3 4.4 -2.7
v 3.1 4.4 -2.8
v 3.3 4.4 -2.8
v 2.9 5.8 -1
v 3 5.8 -1
v 2.9 5.8 -1.1
v 3 5.8 -1.1
v 3.1 5.8 -1.1
v 3 5.8 -1.2
v 3.1 5.8 -1.2
v 3 5.8 -2.8
v 3.1 5.8 -2.8
v 2.9 5.8 -2.9
v 3 5.8 -2.9
v 3.1 5.8 -2.9
v 2.9 5.8 -3
v 3 5.8 -3
v 1 5.9 -1
v 1.1 5.9 -1
v 1 5.9 -1.1
v 1.1 5.9 -1.1
v 2.8 5.9 -1.1
v 2.9 5.9 -1.1
v 3 5.9 -1.1
v 2.9 5.9 -1.2
v 3 5.9 -1.2
v 3.1 5.9 -1.2
v 2.9 5.9 -2.8
v 3 5.9 -2.8
v 3.1 5.9 -2.8
v 1 5.9 -2.9
v 1.1 5.9 -2.9
v 2.8 5.9 -2.9
v 2.9 5.9 -2.9
v 3 5.9 -2.9
v 1 5.9 -3
v 1.1 5.9 -3
v 1.1 6 -1
v 2.8 6 -1
v 1 6 -1.1
v 1.1 6 -1.1
v 2.9 6 -1.2
v 3 6 -1.2
v 2.9 6 -2.8
v 3 6 -2.8
v 1 6 -2.9
v 1.1 6 -2.9
v 1.1 6 -3
v 2.8 6 -3

# faces
f 4/4/1 2/4/1 1/4/1
f 5/4/1 2/4/1 4/4/1
f 7/4/1 4/4/1 3/4/1
f 7/4/1 6/4/1 5/4/1
f 7/4/1 5/4/1 4/4/1
f 8/4/1 6/4/1 7/4/1
f 9/4/1 6/4/1 8/4/1
f 10/4/1 6/4/1 9/4/1
f 11/4/1 9/4/1 8/4/1
f 12/4/1 9/4/1 11/4/1
f 17/4/1 14/4/1 13/4/1
f 18/4/1 14/4/1 17/4/1
f 19/4/1 16/4/1 15/4/1
f 20/4/1 16/4/1 19/4/1
f 25/4/1 22/4/1 21/4/1
f 26/4/1 22/4/1 25/4/1
f 27/4/1 24/4/1 23/4/1
f 28/4/1 24/4/1 27/4/1
f 31/3/1 30/3/1 29/3/1
f 32/3/1 30/3/1 31/3/1
f 37/3/1 34/3/1 33/3/1
f 38/3/1 34/3/1 37/3/1
f 39/3/1 36/3/1 35/3/1
f 40/3/1 36/3/1 39/3/1
f 43/3/1 42/3/1 41/3/1
f 44/3/1 42/3/1 43/3/1
f 47/2/1 46/2/1 45/2/1
f 48/2/1 46/2/1 47/2/1
f 49/4/2 50/4/2 51/4/2
f 51/4/2 50/4/2 52/4/2
f 49/4/2 51/4/2 53/4/2
f 52/4/2 50/4/2 54/4/2
f 49/4/2 53/4/2 55/4/2
f 53/4/2 54/4/2 55/4/2
f 54/4/2 50/4/2 56/4/2
f 55/4/2 54/4/2 56/4/2
f 57/3/2 58/3/2 60/3/2
f 60/3/2 58/3/2 61/3/2
f 59/3/2 60/3/2 64/3/2
f 64/3/2 60/3/2 65/3/2
f 61/3/2 62/3/2 66/3/2
f 66/3/2 62/3/2 67/3/2
f 63/3/2 64/3/2 69/3/2
f 69/3/2 64/3/2 70/3/2
f 67/3/2 68/3/2 73/3/2
f 73/3/2 68/3/2 74/3/2
f 70/3/2 71/3/2 75/3/2
f 75/3/2 71/3/2 76/3/2
f 72/3/2 73/3/2 77/3/2
f 77/3/2 73/3/2 78/3/2
f 76/3/2 77/3/2 79/3/2
f 79/3/2 77/3/2 80/3/2
f 81/4/2 82/4/2 84/4/2
f 84/4/2 82/4/2 85/4/2
f 83/4/2 84/4/2 87/4/2
f 85/4/2 86/4/2 87/4/2
f 84/4/2 85/4/2 87/4/2
f 87/4/2 86/4/2 88/4/2
f 83/4/2 87/4/2 89/4/2
f 88/4/2 86/4/2 90/4/2
f 83/4/2 89/4/2 91/4/2
f 89/4/2 90/4/2 91/4/2
f 91/4/2 90/4/2 92/4/2
f 90/4/2 86/4/2 93/4/2
f 92/4/2 90/4/2 93/4/2
f 93/4/2 86/4/2 94/4/2
f 92/4/2 93/4/2 95/4/2
f 95/4/2 93/4/2 96/4/2
f 97/2/2 98/2/2 99/2/2
f 99/2/2 98/2/2 100/2/2
f 104/4/3 102/4/3 101/4/3
f 105/4/3 102/4/3 104/4/3
f 107/4/3 104/4/3 103/4/3
f 107/4/3 106/4/3 105/4/3
f 107/4/3 105/4/3 104/4/3
f 108/4/3 106/4/3 107/4/3
f 111/3/3 110/3/3 109/3/3
f 112/3/3 110/3/3 111/3/3
f 117/4/3 114/4/3 113/4/3
f 118/4/3 114/4/3 117/4/3
f 119/4/3 116/4/3 115/4/3
f 120/4/3 116/4/3 119/4/3
f 123/5/3 122/5/3 121/5/3
f 124/5/3 122/5/3 123/5/3
f 125/5/3 122/5/3 124/5/3
f 126/5/3 122/5/3 125/5/3
f 127/3/3 124/3/3 123/3/3
f 128/3/3 124/3/3 127/3/3
f 129/3/3 126/3/3 125/3/3
f 130/3/3 126/3/3 129/3/3
f 131/4/3 129/4/3 128/4/3
f 132/4/3 129/4/3 131/4/3
f 137/3/3 134/3/3 133/3/3
f 138/3/3 134/3/3 137/3/3
f 141/3/3 136/3/3 135/3/3
f 142/3/3 136/3/3 141/3/3
f 143/4/3 139/4/3 138/4/3
f 144/4/3 139/4/3 143/4/3
f 145/4/3 141/4/3 140/4/3
f 146/4/3 141/4/3 145/4/3
f 150/2/3 148/2/3 147/2/3
f 151/2/3 150/2/3 149/2/3
f 152/2/3 148/2/3 150/2/3
f 152/2/3 150/2/3 151/2/3
f 153/3/4 154/3/4 157/3/4
f 157/3/4 154/3/4 158/3/4
f 155/3/4 156/3/4 161/3/4
f 161/3/4 156/3/4 162/3/4
f 158/4/4 159/4/4 163/4/4
f 163/4/4 159/4/4 164/4/4
f 160/4/4 161/4/4 167/4/4
f 167/4/4 161/4/4 168/4/4
f 165/2/4 166/2/4 170/2/4
f 169/2/4 170/2/4 171/2/4
f 170/2/4 166/2/4 172/2/4
f 171/2/4 170/2/4 172/2/4
f 173/4/4 174/4/4 177/4/4
f 177/4/4 174/4/4 178/4/4
f 175/4/4 176/4/4 179/4/4
f 179/4/4 176/4/4 180/4/4
f 181/5/4 182/5/4 183/5/4
f 183/5/4 182/5/4 184/5/4
f 184/5/4 182/5/4 185/5/4
f 185/5/4 182/5/4 186/5/4
f 183/3/4 184/3/4 187/3/4
f 187/3/4 184/3/4 188/3/4
f 185/3/4 186/3/4 189/3/4
f 189/3/4 186/3/4 190/3/4
f 188/4/4 189/4/4 191/4/4
f 191/4/4 189/4/4 192/4/4
f 193/4/4 194/4/4 196/4/4
f 196/4/4 194/4/4 197/4/4
f 195/4/4 196/4/4 199/4/4
f 197/4/4 198/4/4 199/4/4
f 196/4/4 197/4/4 199/4/4
f 199/4/4 198/4/4 200/4/4
f 201/3/4 202/3/4 203/3/4
f 203/3/4 202/3/4 204/3/4
f 208/4/5 206/4/5 205/4/5
f 211/3/5 210/3/5 209/3/5
f 212/3/5 210/3/5 211/3/5
f 213/4/5 208/4/5 207/4/5
f 214/4/5 206/4/5 208/4/5
f 214/4/5 208/4/5 213/4/5
f 215/4/5 206/4/5 214/4/5
f 216/4/5 206/4/5 215/4/5
f 219/4/5 218/4/5 217/4/5
f 220/4/5 218/4/5 219/4/5
f 224/3/5 223/3/5 222/3/5
f 224/5/5 222/5/5 221/5/5
f 225/3/5 223/3/5 224/3/5
f 227/5/5 224/5/5 221/5/5
f 228/4/5 226/4/5 225/4/5
f 229/4/5 226/4/5 228/4/5
f 232/5/5 227/5/5 221/5/5
f 233/3/5 228/3/5 227/3/5
f 233/5/5 227/5/5 232/5/5
f 234/3/5 228/3/5 233/3/5
f 235/4/5 231/4/5 230/4/5
f 236/4/5 231/4/5 235/4/5
f 239/3/5 238/3/5 237/3/5
f 240/3/5 238/3/5 239/3/5
f 242/4/5 241/4/5 240/4/5
f 243/4/5 241/4/5 242/4/5
f 247/4/5 245/4/5 244/4/5
f 248/4/5 245/4/5 247/4/5
f 249/3/5 247/3/5 246/3/5
f 250/3/5 247/3/5 249/3/5
f 253/2/5 252/2/5 251/2/5
f 254/2/5 252/2/5 253/2/5
f 257/2/5 256/2/5 255/2/5
f 258/2/5 256/2/5 257/2/5
f 259/2/6 260/2/6 261/2/6
f 261/2/6 260/2/6 262/2/6
f 263/3/6 264/3/6 265/3/6
f 265/3/6 264/3/6 266/3/6
f 266/4/6 267/4/6 268/4/6
f 268/4/6 267/4/6 269/4/6
f 270/4/6 271/4/6 273/4/6
f 273/4/6 271/4/6 274/4/6
f 272/3/6 273/3/6 275/3/6
f 275/3/6 273/3/6 276/3/6
f 277/4/6 278/4/6 279/4/6
f 279/4/6 278/4/6 280/4/6
f 282/3/6 283/3/6 284/3/6
f 281/5/6 282/5/6 284/5/6
f 284/3/6 283/3/6 285/3/6
f 281/5/6 284/5/6 287/5/6
f 285/4/6 286/4/6 288/4/6
f 288/4/6 286/4/6 289/4/6
f 281/5/6 287/5/6 292/5/6
f 287/3/6 288/3/6 293/3/6
f 292/5/6 287/5/6 293/5/6
f 293/3/6 288/3/6 294/3/6
f 290/4/6 291/4/6 295/4/6
f 295/4/6 291/4/6 296/4/6
f 297/4/6 298/4/6 300/4/6
f 301/3/6 302/3/6 303/3/6
f 303/3/6 302/3/6 304/3/6
f 299/4/6 300/4/6 305/4/6
f 300/4/6 298/4/6 306/4/6
f 305/4/6 300/4/6 306/4/6
f 306/4/6 298/4/6 307/4/6
f 307/4/6 298/4/6 308/4/6
